<mxfile host="Electron" agent="Mozilla/5.0 (Windows NT 10.0; Win64; x64) AppleWebKit/537.36 (KHTML, like Gecko) draw.io/24.7.8 Chrome/128.0.6613.36 Electron/32.0.1 Safari/537.36" version="24.7.8">
  <diagram name="Page-1" id="9tnhN_yRS_YZPgpUSMiv">
    <mxGraphModel dx="1727" dy="2110" grid="1" gridSize="10" guides="1" tooltips="1" connect="1" arrows="1" fold="1" page="1" pageScale="1" pageWidth="850" pageHeight="1100" math="0" shadow="0">
      <root>
        <mxCell id="0" />
        <mxCell id="1" parent="0" />
        <mxCell id="hzwnF5TjsieRDd7IkSS3-3" style="edgeStyle=orthogonalEdgeStyle;rounded=0;orthogonalLoop=1;jettySize=auto;html=1;exitX=0.5;exitY=1;exitDx=0;exitDy=0;entryX=0.5;entryY=0;entryDx=0;entryDy=0;" edge="1" parent="1" source="hzwnF5TjsieRDd7IkSS3-1" target="hzwnF5TjsieRDd7IkSS3-2">
          <mxGeometry relative="1" as="geometry" />
        </mxCell>
        <mxCell id="hzwnF5TjsieRDd7IkSS3-1" value="" style="ellipse;html=1;shape=endState;fillColor=#000000;strokeColor=#ff0000;" vertex="1" parent="1">
          <mxGeometry x="300" y="-1100" width="30" height="30" as="geometry" />
        </mxCell>
        <mxCell id="hzwnF5TjsieRDd7IkSS3-5" style="edgeStyle=orthogonalEdgeStyle;rounded=0;orthogonalLoop=1;jettySize=auto;html=1;exitX=0.5;exitY=1;exitDx=0;exitDy=0;entryX=0.5;entryY=0;entryDx=0;entryDy=0;" edge="1" parent="1" source="hzwnF5TjsieRDd7IkSS3-2" target="hzwnF5TjsieRDd7IkSS3-4">
          <mxGeometry relative="1" as="geometry" />
        </mxCell>
        <mxCell id="hzwnF5TjsieRDd7IkSS3-2" value="Customer&lt;span style=&quot;color: rgba(0, 0, 0, 0); font-family: monospace; font-size: 0px; text-align: start; text-wrap: nowrap;&quot;&gt;%3CmxGraphModel%3E%3Croot%3E%3CmxCell%20id%3D%220%22%2F%3E%3CmxCell%20id%3D%221%22%20parent%3D%220%22%2F%3E%3CmxCell%20id%3D%222%22%20value%3D%22Validate%22%20style%3D%22rhombus%3BwhiteSpace%3Dwrap%3Bhtml%3D1%3B%22%20vertex%3D%221%22%20parent%3D%221%22%3E%3CmxGeometry%20x%3D%22205%22%20y%3D%22-100%22%20width%3D%22180%22%20height%3D%22100%22%20as%3D%22geometry%22%2F%3E%3C%2FmxCell%3E%3C%2Froot%3E%3C%2FmxGraphModel%3E&lt;/span&gt;" style="rounded=1;whiteSpace=wrap;html=1;" vertex="1" parent="1">
          <mxGeometry x="220" y="-1030" width="190" height="50" as="geometry" />
        </mxCell>
        <mxCell id="hzwnF5TjsieRDd7IkSS3-7" style="edgeStyle=orthogonalEdgeStyle;rounded=0;orthogonalLoop=1;jettySize=auto;html=1;exitX=0;exitY=0.5;exitDx=0;exitDy=0;entryX=0;entryY=0.5;entryDx=0;entryDy=0;" edge="1" parent="1" source="hzwnF5TjsieRDd7IkSS3-4" target="hzwnF5TjsieRDd7IkSS3-2">
          <mxGeometry relative="1" as="geometry">
            <Array as="points">
              <mxPoint x="140" y="-880" />
              <mxPoint x="140" y="-1005" />
            </Array>
          </mxGeometry>
        </mxCell>
        <mxCell id="hzwnF5TjsieRDd7IkSS3-8" style="edgeStyle=orthogonalEdgeStyle;rounded=0;orthogonalLoop=1;jettySize=auto;html=1;exitX=1;exitY=0.5;exitDx=0;exitDy=0;" edge="1" parent="1" source="hzwnF5TjsieRDd7IkSS3-4">
          <mxGeometry relative="1" as="geometry">
            <mxPoint x="480" y="-760" as="targetPoint" />
          </mxGeometry>
        </mxCell>
        <mxCell id="hzwnF5TjsieRDd7IkSS3-4" value="Validate Customer" style="rhombus;whiteSpace=wrap;html=1;" vertex="1" parent="1">
          <mxGeometry x="225" y="-930" width="180" height="100" as="geometry" />
        </mxCell>
        <mxCell id="hzwnF5TjsieRDd7IkSS3-6" value="" style="shape=link;html=1;rounded=0;" edge="1" parent="1">
          <mxGeometry width="100" relative="1" as="geometry">
            <mxPoint y="-760" as="sourcePoint" />
            <mxPoint x="840" y="-760" as="targetPoint" />
          </mxGeometry>
        </mxCell>
        <mxCell id="hzwnF5TjsieRDd7IkSS3-9" value="Search Ride" style="rounded=1;whiteSpace=wrap;html=1;" vertex="1" parent="1">
          <mxGeometry y="-660" width="190" height="50" as="geometry" />
        </mxCell>
        <mxCell id="hzwnF5TjsieRDd7IkSS3-10" value="View Ride" style="rounded=1;whiteSpace=wrap;html=1;" vertex="1" parent="1">
          <mxGeometry x="220" y="-660" width="190" height="50" as="geometry" />
        </mxCell>
        <mxCell id="hzwnF5TjsieRDd7IkSS3-14" style="edgeStyle=orthogonalEdgeStyle;rounded=0;orthogonalLoop=1;jettySize=auto;html=1;exitX=0.5;exitY=1;exitDx=0;exitDy=0;entryX=0.5;entryY=0;entryDx=0;entryDy=0;" edge="1" parent="1" source="hzwnF5TjsieRDd7IkSS3-11" target="hzwnF5TjsieRDd7IkSS3-13">
          <mxGeometry relative="1" as="geometry" />
        </mxCell>
        <mxCell id="hzwnF5TjsieRDd7IkSS3-11" value="Book Ride" style="rounded=1;whiteSpace=wrap;html=1;" vertex="1" parent="1">
          <mxGeometry x="440" y="-660" width="190" height="50" as="geometry" />
        </mxCell>
        <mxCell id="hzwnF5TjsieRDd7IkSS3-12" value="Cancel Ride" style="rounded=1;whiteSpace=wrap;html=1;" vertex="1" parent="1">
          <mxGeometry x="660" y="-660" width="190" height="50" as="geometry" />
        </mxCell>
        <mxCell id="hzwnF5TjsieRDd7IkSS3-19" style="edgeStyle=orthogonalEdgeStyle;rounded=0;orthogonalLoop=1;jettySize=auto;html=1;exitX=1;exitY=0.5;exitDx=0;exitDy=0;" edge="1" parent="1" source="hzwnF5TjsieRDd7IkSS3-13" target="hzwnF5TjsieRDd7IkSS3-12">
          <mxGeometry relative="1" as="geometry" />
        </mxCell>
        <mxCell id="hzwnF5TjsieRDd7IkSS3-21" style="edgeStyle=orthogonalEdgeStyle;rounded=0;orthogonalLoop=1;jettySize=auto;html=1;exitX=0.5;exitY=1;exitDx=0;exitDy=0;entryX=0.5;entryY=0;entryDx=0;entryDy=0;" edge="1" parent="1" source="hzwnF5TjsieRDd7IkSS3-13" target="hzwnF5TjsieRDd7IkSS3-20">
          <mxGeometry relative="1" as="geometry" />
        </mxCell>
        <mxCell id="hzwnF5TjsieRDd7IkSS3-13" value="Check" style="rhombus;whiteSpace=wrap;html=1;" vertex="1" parent="1">
          <mxGeometry x="445" y="-550" width="180" height="100" as="geometry" />
        </mxCell>
        <mxCell id="hzwnF5TjsieRDd7IkSS3-15" value="" style="endArrow=classic;html=1;rounded=0;entryX=0.494;entryY=-0.005;entryDx=0;entryDy=0;entryPerimeter=0;flowAnimation=0;shadow=0;" edge="1" parent="1" target="hzwnF5TjsieRDd7IkSS3-9">
          <mxGeometry width="50" height="50" relative="1" as="geometry">
            <mxPoint x="94" y="-758" as="sourcePoint" />
            <mxPoint x="89.99999999999999" y="-660" as="targetPoint" />
          </mxGeometry>
        </mxCell>
        <mxCell id="hzwnF5TjsieRDd7IkSS3-16" value="" style="endArrow=classic;html=1;rounded=0;entryX=0.494;entryY=-0.005;entryDx=0;entryDy=0;entryPerimeter=0;flowAnimation=0;shadow=0;" edge="1" parent="1">
          <mxGeometry width="50" height="50" relative="1" as="geometry">
            <mxPoint x="320" y="-758" as="sourcePoint" />
            <mxPoint x="320" y="-660" as="targetPoint" />
          </mxGeometry>
        </mxCell>
        <mxCell id="hzwnF5TjsieRDd7IkSS3-17" value="" style="endArrow=classic;html=1;rounded=0;entryX=0.494;entryY=-0.005;entryDx=0;entryDy=0;entryPerimeter=0;flowAnimation=0;shadow=0;" edge="1" parent="1">
          <mxGeometry width="50" height="50" relative="1" as="geometry">
            <mxPoint x="530" y="-758" as="sourcePoint" />
            <mxPoint x="530" y="-660" as="targetPoint" />
          </mxGeometry>
        </mxCell>
        <mxCell id="hzwnF5TjsieRDd7IkSS3-18" value="" style="endArrow=classic;html=1;rounded=0;entryX=0.494;entryY=-0.005;entryDx=0;entryDy=0;entryPerimeter=0;flowAnimation=0;shadow=0;" edge="1" parent="1">
          <mxGeometry width="50" height="50" relative="1" as="geometry">
            <mxPoint x="754.33" y="-758" as="sourcePoint" />
            <mxPoint x="754.33" y="-660" as="targetPoint" />
          </mxGeometry>
        </mxCell>
        <mxCell id="hzwnF5TjsieRDd7IkSS3-23" style="edgeStyle=orthogonalEdgeStyle;rounded=0;orthogonalLoop=1;jettySize=auto;html=1;exitX=0.5;exitY=1;exitDx=0;exitDy=0;" edge="1" parent="1" source="hzwnF5TjsieRDd7IkSS3-20">
          <mxGeometry relative="1" as="geometry">
            <mxPoint x="534.6521739130435" y="-240" as="targetPoint" />
          </mxGeometry>
        </mxCell>
        <mxCell id="hzwnF5TjsieRDd7IkSS3-20" value="Booked Ride" style="rounded=1;whiteSpace=wrap;html=1;" vertex="1" parent="1">
          <mxGeometry x="440" y="-350" width="190" height="50" as="geometry" />
        </mxCell>
        <mxCell id="hzwnF5TjsieRDd7IkSS3-22" value="" style="shape=link;html=1;rounded=0;" edge="1" parent="1">
          <mxGeometry width="100" relative="1" as="geometry">
            <mxPoint x="290" y="-240" as="sourcePoint" />
            <mxPoint x="760" y="-240" as="targetPoint" />
          </mxGeometry>
        </mxCell>
        <mxCell id="hzwnF5TjsieRDd7IkSS3-27" style="edgeStyle=orthogonalEdgeStyle;rounded=0;orthogonalLoop=1;jettySize=auto;html=1;exitX=0.5;exitY=1;exitDx=0;exitDy=0;" edge="1" parent="1" source="hzwnF5TjsieRDd7IkSS3-24" target="hzwnF5TjsieRDd7IkSS3-26">
          <mxGeometry relative="1" as="geometry" />
        </mxCell>
        <mxCell id="hzwnF5TjsieRDd7IkSS3-24" value="Booked Ride" style="rounded=1;whiteSpace=wrap;html=1;" vertex="1" parent="1">
          <mxGeometry x="340" y="-160" width="190" height="50" as="geometry" />
        </mxCell>
        <mxCell id="hzwnF5TjsieRDd7IkSS3-25" value="" style="endArrow=classic;html=1;rounded=0;flowAnimation=0;shadow=0;" edge="1" parent="1">
          <mxGeometry width="50" height="50" relative="1" as="geometry">
            <mxPoint x="439" y="-238" as="sourcePoint" />
            <mxPoint x="439" y="-160" as="targetPoint" />
          </mxGeometry>
        </mxCell>
        <mxCell id="hzwnF5TjsieRDd7IkSS3-26" value="" style="ellipse;html=1;shape=endState;fillColor=#000000;strokeColor=#ff0000;" vertex="1" parent="1">
          <mxGeometry x="420" y="-50" width="30" height="30" as="geometry" />
        </mxCell>
        <mxCell id="hzwnF5TjsieRDd7IkSS3-28" value="Start&lt;span style=&quot;color: rgba(0, 0, 0, 0); font-family: monospace; font-size: 0px; text-align: start; text-wrap: nowrap;&quot;&gt;%3CmxGraphModel%3E%3Croot%3E%3CmxCell%20id%3D%220%22%2F%3E%3CmxCell%20id%3D%221%22%20parent%3D%220%22%2F%3E%3CmxCell%20id%3D%222%22%20value%3D%22%22%20style%3D%22ellipse%3Bhtml%3D1%3Bshape%3DendState%3BfillColor%3D%23000000%3BstrokeColor%3D%23ff0000%3B%22%20vertex%3D%221%22%20parent%3D%221%22%3E%3CmxGeometry%20x%3D%22300%22%20y%3D%22-1100%22%20width%3D%2230%22%20height%3D%2230%22%20as%3D%22geometry%22%2F%3E%3C%2FmxCell%3E%3C%2Froot%3E%3C%2FmxGraphModel%3E&lt;/span&gt;" style="text;html=1;align=center;verticalAlign=middle;whiteSpace=wrap;rounded=0;" vertex="1" parent="1">
          <mxGeometry x="330" y="-1100" width="60" height="30" as="geometry" />
        </mxCell>
        <mxCell id="hzwnF5TjsieRDd7IkSS3-29" value="No" style="text;html=1;align=center;verticalAlign=middle;whiteSpace=wrap;rounded=0;" vertex="1" parent="1">
          <mxGeometry x="80" y="-970" width="60" height="30" as="geometry" />
        </mxCell>
        <mxCell id="hzwnF5TjsieRDd7IkSS3-30" value="Yes" style="text;html=1;align=center;verticalAlign=middle;whiteSpace=wrap;rounded=0;" vertex="1" parent="1">
          <mxGeometry x="410" y="-910" width="60" height="30" as="geometry" />
        </mxCell>
        <mxCell id="hzwnF5TjsieRDd7IkSS3-31" value="Login" style="text;html=1;align=center;verticalAlign=middle;whiteSpace=wrap;rounded=0;" vertex="1" parent="1">
          <mxGeometry x="490" y="-840" width="60" height="30" as="geometry" />
        </mxCell>
        <mxCell id="hzwnF5TjsieRDd7IkSS3-32" value="Yes" style="text;html=1;align=center;verticalAlign=middle;whiteSpace=wrap;rounded=0;" vertex="1" parent="1">
          <mxGeometry x="530" y="-450" width="60" height="30" as="geometry" />
        </mxCell>
        <mxCell id="hzwnF5TjsieRDd7IkSS3-33" value="No" style="text;html=1;align=center;verticalAlign=middle;whiteSpace=wrap;rounded=0;" vertex="1" parent="1">
          <mxGeometry x="660" y="-530" width="60" height="30" as="geometry" />
        </mxCell>
        <mxCell id="hzwnF5TjsieRDd7IkSS3-34" value="End" style="text;html=1;align=center;verticalAlign=middle;whiteSpace=wrap;rounded=0;" vertex="1" parent="1">
          <mxGeometry x="460" y="-50" width="60" height="30" as="geometry" />
        </mxCell>
      </root>
    </mxGraphModel>
  </diagram>
</mxfile>
